# xmcd
#
# Track frame offsets:
#	150
#	10916
#	21449
#	32289
#	52078
#	72883
#	90397
#	111618
#	125256
#	139960
#	155681
#	174728
#	195377
#	209768
#	219898
#
# Disc length: 3126 seconds
#
# Revision: 1
# Processed by: cddbd v1.5.2PL0 Copyright (c) Steve Scherf et al.
# Submitted via: audiograbber 1.83.01
#
DISCID=d80c340f
DTITLE=Various Artist - Peter Young Presents - Soul Cellar CD2
DYEAR=2010
DGENRE=Soul
TTITLE0=Arthur Conley - Shake, Rattle and Roll
TTITLE1=Larry Williams and Johnny Watson - Too Late
TTITLE2=The Staple Singers - For What It's Worth
TTITLE3=Pockets - Come Go With Me
TTITLE4=Candi Staton - Halfway To Heaven
TTITLE5=Detroit Spinners - Love Is In Season
TTITLE6=Pieces Of A Dream - Fo Fi Fo
TTITLE7=Little Milton - Let Me Back In
TTITLE8=Salena Jones - Am I The Same Girl (Soulful Strut)
TTITLE9=Thelma Jones - How Long
TTITLE10=The Friends Of Distinction - Going In Circles
TTITLE11=Starship Orchestra - New York, New York
TTITLE12=Frederick Knight - Trouble
TTITLE13=James and Boby Purify - I Take What I Want
TTITLE14=Freddie Scott - Am I Grooving You
EXTD=Ripped By ChocDj
EXTT0=
EXTT1=
EXTT2=
EXTT3=
EXTT4=
EXTT5=
EXTT6=
EXTT7=
EXTT8=
EXTT9=
EXTT10=
EXTT11=
EXTT12=
EXTT13=
EXTT14=
PLAYORDER=
